<svg style="display: none" xmlns="http://www.w3.org/2000/svg">
    <symbol id="navigation-menu-ford-logo" viewBox="0 0 80 30">
      <path d="M40 0C17.7988 0 0 6.65555 0 15C0 23.2944 17.9432 30 40 30C62.0568 30 80 23.2722 80 15C80 6.72778 62.0568 0 40 0Z" fill="#00095B"/>
      <path d="M63.4981 10.6943C63.5509 10.6027 63.4953 10.536 63.3787 10.536C62.7759 10.536 61.9843 10.536 61.3566 10.536C61.2066 10.536 61.1288 10.5555 61.0594 10.6943C60.8288 11.1388 58.004 15.3721 57.4763 16.1943C57.3874 16.3193 57.2791 16.3027 57.268 16.161C57.2152 15.6721 56.793 15.111 56.1292 14.8416C55.6236 14.636 55.1265 14.5999 54.6126 14.6666C53.6849 14.7916 52.8544 15.2805 52.1267 15.8332C51.0295 16.6666 50.0824 17.7471 48.863 18.5471C48.1964 18.9805 47.2826 19.361 46.6715 18.7943C46.1187 18.2805 46.1799 17.1416 47.027 16.261C47.1159 16.1693 47.2242 16.2471 47.2076 16.3277C47.127 16.7249 47.227 17.1221 47.527 17.3999C47.8964 17.7305 48.4241 17.7693 48.8769 17.5471C49.4102 17.2832 49.7241 16.7721 49.8157 16.1916C49.9574 15.2916 49.2658 14.4999 48.3991 14.436C47.6964 14.386 47.0215 14.6305 46.3632 15.1749C46.0326 15.4471 45.8465 15.6499 45.5605 16.0555C45.491 16.1555 45.3855 16.1666 45.3882 16.0193C45.4216 14.8693 44.9438 14.2221 43.9939 14.1999C43.2551 14.1832 42.4662 14.5832 41.8524 15.0721C41.1774 15.6138 40.5886 16.3305 39.9581 17.0055C39.8803 17.0888 39.8109 17.086 39.7886 16.9249C39.7692 16.161 39.5775 15.4249 39.2248 14.8999C39.0998 14.7166 38.8359 14.6277 38.6165 14.7499C38.5137 14.8055 38.161 14.9693 37.9027 15.1777C37.7749 15.2832 37.7249 15.436 37.7804 15.6305C38.1221 16.7693 38.0471 18.0638 37.5832 19.1582C37.1583 20.161 36.3333 21.0638 35.3639 21.3693C34.7251 21.5721 34.0613 21.4721 33.6502 20.9055C33.0863 20.1249 33.3141 18.7638 34.1557 17.636C34.8973 16.6416 35.9722 16.011 37.0416 15.6055C37.1666 15.5582 37.1944 15.4749 37.1583 15.3693C37.0999 15.1943 37.0083 14.9527 36.9694 14.8443C36.8722 14.5832 36.5972 14.5416 36.2611 14.5777C35.4834 14.6693 34.7806 14.936 34.089 15.3055C32.2725 16.2777 31.3642 18.1582 30.9642 19.1666C30.7726 19.6499 30.6087 19.9527 30.3948 20.2193C30.1087 20.5777 29.7504 20.9055 29.0922 21.4832C29.0338 21.536 28.9894 21.6471 29.0394 21.7499C29.106 21.8888 29.4477 22.3721 29.5449 22.4138C29.6504 22.4666 29.7754 22.3916 29.8254 22.3582C30.2865 22.0471 30.8337 21.5527 31.1031 21.2166C31.1976 21.1027 31.2948 21.1499 31.3448 21.3249C31.5948 22.2221 32.253 22.9527 33.1641 23.2582C34.8279 23.8193 36.5555 23.0082 37.8582 21.5916C38.6859 20.6916 38.9859 20.1138 39.3026 19.7221C39.8414 19.0555 40.9024 17.5638 42.1662 16.6055C42.6301 16.2527 43.1773 15.9832 43.455 16.161C43.6773 16.3055 43.7467 16.6388 43.3939 17.2832C42.1051 19.636 40.208 22.4027 39.8608 23.0721C39.797 23.1888 39.8525 23.2805 39.9747 23.2805C40.6497 23.2777 41.3163 23.2777 41.9301 23.2777C42.0329 23.2721 42.0774 23.2277 42.1274 23.1555C43.1162 21.6082 44.0467 20.1332 45.0438 18.611C45.0994 18.5221 45.1521 18.5916 45.1521 18.6305C45.1716 18.9832 45.2605 19.4666 45.4688 19.786C45.8465 20.3721 46.3798 20.6249 46.9742 20.6305C47.4464 20.636 47.6853 20.5638 48.1936 20.3749C48.6075 20.2221 48.9408 20.0193 49.1935 19.8388C49.3435 19.736 49.3685 19.9082 49.3657 19.936C49.138 21.1638 49.4185 22.6221 50.6407 23.2249C52.1017 23.9443 53.7071 22.9332 54.632 22.0193C54.7237 21.9305 54.8181 21.9416 54.8293 22.1305C54.8487 22.4805 55.007 22.8943 55.2959 23.1832C56.0708 23.961 57.6318 23.6527 59.2012 22.4388C60.2067 21.661 61.2621 20.5638 62.2121 19.3999C62.2482 19.3555 62.2732 19.2832 62.2065 19.2082C62.0621 19.0555 61.851 18.8832 61.7093 18.7499C61.6427 18.6943 61.5482 18.711 61.4927 18.7527C60.5177 19.6805 59.64 20.7388 58.3707 21.6138C57.9429 21.9138 57.2596 22.1527 56.9541 21.7388C56.8347 21.5777 56.8486 21.3555 56.9652 21.0638C57.3374 20.1416 63.1953 11.2221 63.4981 10.6943ZM55.7542 18.1749C55.7653 18.2443 55.8542 18.3082 55.9431 18.3416C55.9736 18.3527 55.9903 18.3749 55.957 18.4471C55.707 18.9805 55.4792 19.2888 55.1653 19.7527C54.8793 20.1805 54.5543 20.5166 54.1626 20.836C53.571 21.3249 52.7516 21.8582 52.0739 21.4999C51.7739 21.3443 51.6434 20.9221 51.6489 20.5805C51.6656 19.6193 52.0906 18.636 52.8794 17.6666C53.8404 16.4832 54.9042 15.8693 55.6014 16.2055C56.3236 16.5499 56.0931 17.386 55.7709 18.0416C55.7431 18.0916 55.7431 18.1332 55.7542 18.1749Z" fill="white"/>
      <path d="M21.0065 23.2525C18.8233 23.2692 16.8984 21.9192 16.6762 19.5803C16.554 18.2859 16.9207 17.1303 17.6512 16.1803C18.3011 15.3331 19.4011 14.6303 20.3315 14.4581C20.6343 14.4025 21.0426 14.4387 21.2093 14.6387C21.4731 14.947 21.3981 15.2831 21.1343 15.4192C20.4232 15.7831 19.5677 16.4025 19.1455 17.2498C18.8011 17.9414 18.7317 18.7775 19.2566 19.572C20.1343 20.897 22.5786 20.9331 24.8535 18.8192C25.4173 18.3025 25.92 17.8053 26.4339 17.2164C27.4338 16.072 27.7671 15.6553 29.1004 13.8081C29.117 13.7859 29.1198 13.7581 29.1143 13.7442C29.1032 13.722 29.0837 13.7137 29.0448 13.7109C28.156 13.7359 27.3811 13.9998 26.6283 14.5637C26.4117 14.722 26.1006 14.6998 25.9617 14.4914C25.8089 14.2553 25.92 13.9498 26.17 13.7775C27.3811 12.9359 28.7032 12.7831 30.0559 12.5553C30.0559 12.5553 30.1503 12.5609 30.2281 12.4581C30.7836 11.747 31.2002 11.1025 31.7919 10.3831C32.3863 9.65254 33.1584 8.9831 33.7445 8.47754C34.5667 7.77199 35.0916 7.5331 35.6277 7.24421C35.7694 7.17199 35.611 7.0831 35.5666 7.0831C32.5807 6.52199 29.4754 5.79421 26.5089 6.89421C24.4535 7.66088 23.5535 9.29143 23.9868 10.3775C24.2952 11.1498 25.309 11.2748 26.2617 10.8109C27.0505 10.4248 27.781 9.79976 28.3004 8.99699C28.5893 8.55254 29.2004 8.87199 28.8698 9.64699C28.0032 11.6887 26.3422 13.3053 24.3229 13.3748C22.6036 13.4303 21.4954 12.1664 21.4981 10.6053C21.5037 7.52754 24.9312 5.49976 28.531 5.19699C32.8668 4.83865 36.9748 5.99421 41.2773 6.51643C44.5771 6.91643 47.738 6.92476 51.0544 6.16365C51.4461 6.07754 51.721 6.32754 51.696 6.72476C51.6627 7.29699 51.2211 7.84699 50.1295 8.44421C48.8879 9.12476 47.588 9.3331 46.2325 9.34421C42.9522 9.37199 39.8941 8.09143 36.7332 7.40532C36.7387 7.54421 36.7721 7.7081 36.6582 7.79699C34.9055 9.08865 33.3223 10.4025 32.2613 12.2442C32.2252 12.2859 32.2446 12.3275 32.3057 12.322C33.2279 12.272 34.0556 12.2498 34.9139 12.1803C35.0639 12.1692 35.0694 12.1303 35.0555 12.0192C34.9805 11.3831 35.1638 10.6609 35.7249 10.1609C36.2971 9.64699 37.0137 9.58865 37.4887 9.9581C38.0275 10.3775 37.9803 11.1359 37.6859 11.7025C37.3859 12.2775 36.8887 12.5859 36.4138 12.7359C36.4138 12.7359 36.3138 12.7581 36.3277 12.8498C36.3471 12.9942 36.9943 13.3553 37.0498 13.4498C37.1026 13.5414 37.0748 13.6831 36.9776 13.7914C36.9082 13.8692 36.8026 13.9442 36.6637 13.9414C36.5526 13.9387 36.486 13.8998 36.3415 13.8248C36.0499 13.6664 35.686 13.4081 35.4444 13.1025C35.3611 12.9998 35.3194 12.997 35.1139 13.0081C34.1834 13.0609 32.7335 13.2025 31.7502 13.3248C31.5113 13.3553 31.478 13.3998 31.428 13.4803C29.8614 16.0637 28.1893 18.8498 26.3506 20.7164C24.3813 22.7137 22.7425 23.2387 21.0065 23.2525ZM35.936 11.772C35.961 11.9053 36.0138 11.9303 36.0721 11.9192C36.3693 11.8609 36.6971 11.6137 36.8915 11.3303C37.0665 11.072 37.1498 10.6998 36.9748 10.5498C36.8193 10.4164 36.5638 10.4525 36.3777 10.6192C36.0027 10.9498 35.8888 11.4192 35.936 11.772Z" fill="white"/>
      <path d="M39.9997 28.6919C18.829 28.6919 1.66907 22.5641 1.66907 15.003C1.66907 7.44193 18.829 1.31415 39.9997 1.31415C61.1677 1.31415 78.3249 7.44193 78.3249 15.003C78.3249 22.5641 61.1649 28.6919 39.9997 28.6919ZM39.9997 2.45304C19.5734 2.45304 3.01897 8.09748 3.01897 15.003C3.01897 21.9114 19.5762 27.5558 39.9997 27.5558C60.4233 27.5558 76.9805 21.9114 76.9805 15.003C76.9777 8.09748 60.4233 2.45304 39.9997 2.45304Z" fill="white"/>
    </symbol>
    <symbol id="navigation-menu-plus" viewBox="0 0 24 24">
      <path d="M10.9 0v10.9H0v2.2h10.9V24h2.2V13.1H24v-2.2H13.1V0z" fill="currentColor" fill-rule="evenodd"/>
    </symbol>
    <symbol id="navigation-menu-minus" viewBox="0 0 24 24">
      <path d="M0 10.9v2.2h24v-2.2z" fill="currentColor" fill-rule="evenodd"/>
    </symbol>
    <symbol id="navigation-menu-search" viewBox="0 0 24 24">
      <path d="M2.6 9.6c0-3.9 3.2-7.1 7.1-7.1s7.1 3.2 7.1 7.1-3.2 7.1-7.1 7.1-7.1-3.2-7.1-7.1m20.2 13.2c.3-.3.3-.8 0-1.1l-6.5-6.5c1.5-1.8 2.2-4.1 2-6.4-.4-3.9-3.5-7.2-7.5-7.7C6 .5 1.7 3.8 1.1 8.5v2.2c.5 3.9 3.7 7.1 7.7 7.5 2.3.3 4.7-.5 6.4-2l6.5 6.5c.3.3.8.3 1.1 0" fill="currentColor" fill-rule="evenodd"/>
    </symbol>
    <symbol id="navigation-menu-arrow-up" viewBox="0 0 24 13.4">
      <path d="M12, 0L0, 12l1.4, 1.4L12, 2.8l10.6, 10.6, 1.4-1.4L12, 0Z" fill="currentColor" fill-rule="evenodd"/>
    </symbol>
    <symbol id="navigation-menu-arrow-right" viewBox="0 0 13 24">
      <path d="M1.4 0 13 12 1.4 24 0 22.6 10.3 12 0 1.4z" fill="currentColor" fill-rule="evenodd"/>
    </symbol>
    <symbol id="navigation-menu-arrow-down" viewBox="0 0 24 13.4">
      <path d="m12 13.4 12-12L22.6 0 12 10.6 1.4 0 0 1.4z" fill="currentColor" fill-rule="evenodd"/>
    </symbol>
    <symbol id="navigation-menu-arrow-left" viewBox="0 0 13 24">
      <path d="M11.6 0 0 12l11.6 12 1.4-1.4L2.7 12 13 1.4z" fill="currentColor" fill-rule="evenodd"/>
    </symbol>
    <symbol id="vehicle-link-hybrid" viewBox="0 0 15.4 16">
      <path d="M9.2 5.7h1.3v5H9.2V8.9h-3v1.8H4.9v-5h1.3v1.8h3zm6.2-.1-1.8-3.1h-2.8L9.4 0H5.9L4.5 2.4H1.8L0 5.5 1.4 8 0 10.4l1.8 3.1h2.8L6 15.9h3.5l1.4-2.5h2.8l1.8-3.1-1.4-2.5 1.4-2.4Z" fill="#6aad40"/>
    </symbol>
    <symbol id="close" viewBox="0 0 24 24">
    <g>
        <path d="M12 13.4L7.09999 18.3C6.91665 18.4834 6.68332 18.575 6.39999 18.575C6.11665 18.575 5.88332 18.4834 5.69999 18.3C5.51665 18.1167 5.42499 17.8834 5.42499 17.6C5.42499 17.3167 5.51665 17.0834 5.69999 16.9L10.6 12L5.69999 7.10005C5.51665 6.91672 5.42499 6.68338 5.42499 6.40005C5.42499 6.11672 5.51665 5.88338 5.69999 5.70005C5.88332 5.51672 6.11665 5.42505 6.39999 5.42505C6.68332 5.42505 6.91665 5.51672 7.09999 5.70005L12 10.6L16.9 5.70005C17.0833 5.51672 17.3167 5.42505 17.6 5.42505C17.8833 5.42505 18.1167 5.51672 18.3 5.70005C18.4833 5.88338 18.575 6.11672 18.575 6.40005C18.575 6.68338 18.4833 6.91672 18.3 7.10005L13.4 12L18.3 16.9C18.4833 17.0834 18.575 17.3167 18.575 17.6C18.575 17.8834 18.4833 18.1167 18.3 18.3C18.1167 18.4834 17.8833 18.575 17.6 18.575C17.3167 18.575 17.0833 18.4834 16.9 18.3L12 13.4Z" fill="currentColor"/>
    </g>
  </symbol>
    <symbol id="vehicle-link-electric" viewBox="0 0 15.8 16">
      <path d="M1.9 7.4H.7C1 3.9 3.8 1.1 7.2.8V2c-2.8.3-5.1 2.6-5.4 5.4m5.4 6.7v1.2C3.8 15 1 12.2.7 8.7h1.2c.3 2.9 2.5 5.1 5.4 5.4M15 8.7c-.3 3.5-3.1 6.3-6.5 6.6v-1.2c2.8-.3 5-2.6 5.3-5.4zM8.5 2V.8c3.4.3 6.2 3.1 6.5 6.6h-1.2c-.3-2.9-2.5-5.1-5.3-5.4m2.3 4.6H6.2s-.3 0-.3.3v.6h4.7v1.2H5.9v.6c0 .2.2.3.3.3h4.6v1.2H6.3c-1.3 0-1.6-1.2-1.7-1.6v-2c0-.4.4-1.6 1.7-1.6h4.5v1.2ZM7.9 0C3.5 0 0 3.6 0 8s3.5 8 7.9 8 7.9-3.6 7.9-8-3.6-8-7.9-8" fill="#009cc8"/>
    </symbol>
    <symbol id="vehicle-link-electric-canada" viewBox="0 0 13.9 16">
      <path d="M6.9 0 0 4v8l6.9 4 6.9-4V4z" fill="#00a5b5"/>
      <path d="m6.9 1-6 3.5v7l6 3.5 6-3.5v-7zm5 9.9-5 2.9-5-2.9V5.1l5-2.9 5 2.9z" fill="#fff"/>
      <path d="M9.5 7.4c0-.8-.3-1.5-1.8-1.5H4.8V10h1.1V8.9h1.5l.7 1.2h1.2l-.8-1.4c.7-.2.9-.8.9-1.4Zm-3.6-.5h1.8c.5 0 .6.1.6.5s-.2.5-.6.5H5.9V6.8Z" fill="#fff"/>
    </symbol>
    <symbol id="vehicle-link-plugin" viewBox="0 0 13.6 16">
      <path d="M7.8 8.2c.6 0 .8-.2.8-.7s-.2-.7-.8-.7H5.6v1.3h2.2ZM4.2 5.6h3.6c1.7 0 2.1.8 2.1 1.8s-.4 1.9-2.2 1.9H5.6v1.4H4.2zM0 4v8l6.8 4 6.8-4V4L6.8 0z" fill="#009ba5"/>
    </symbol>
    <symbol id="navigation-menu-my-account" viewBox="0 0 24 24">
      <path d="M8.8 6.3c0 1.8 1.4 3.2 3.2 3.2s3.2-1.4 3.2-3.2-1.4-3.2-3.2-3.2-3.2 1.4-3.2 3.2m8 0c0 2.7-2.1 4.8-4.8 4.8S7.2 8.9 7.2 6.3 9.3 1.5 12 1.5s4.8 2.2 4.8 4.8m1.6 12.2v2.4H5.6v-2.4c0-2.2 1.8-4 4-4h4.8c2.2 0 4 1.8 4 4M4 22.5h16v-4c0-3.1-2.5-5.7-5.6-5.7H9.6c-3.1 0-5.6 2.5-5.6 5.7z" fill="currentColor" fill-rule="evenodd"/>
    </symbol>
    <symbol id="navigation-menu-my-account-authenticated" viewBox="0 0 16 16">
      <path fill-rule="evenodd" clip-rule="evenodd" d="M10.7995 5.1999C10.7995 6.7599 9.55946 7.9999 7.99946 7.9999C6.43946 7.9999 5.19946 6.7599 5.19946 5.1999C5.19946 3.6399 6.43946 2.3999 7.99946 2.3999C9.55946 2.3999 10.7995 3.6399 10.7995 5.1999ZM3.19922 14.4003H12.7992V12.0003C12.7992 10.2403 11.3592 8.80029 9.59922 8.80029H6.39922C4.63922 8.80029 3.19922 10.2403 3.19922 12.0003V14.4003Z" fill="#00095B"/>
    </symbol>
    <symbol id="navigation-menu-language-selector" viewBox="0 0 24 24">
      <path d="M14.7 21c1.7-2.5 2.6-5.3 2.8-8.2h3.9c-.3 3.9-3 7.1-6.7 8.2M2.6 12.8h3.9c.1 2.9 1.1 5.8 2.8 8.2-3.6-1.1-6.3-4.3-6.7-8.2M9.3 3c-1.7 2.5-2.6 5.3-2.8 8.2H2.6c.3-3.9 3-7.1 6.7-8.2m3.5 8.2V3c1.9 2.4 3 5.3 3.1 8.2zm0 1.6h3.1c-.2 2.9-1.2 5.8-3.1 8.2zm-1.6 0V21c-1.9-2.4-3-5.3-3.1-8.2zm0-1.6H8.1c.2-2.9 1.2-5.8 3.1-8.2zm10.2 0h-3.9c-.1-2.9-1.1-5.8-2.8-8.2 3.6 1.1 6.3 4.3 6.7 8.2M12 1C5.9 1 1 5.9 1 12s4.9 11 11 11 11-4.9 11-11S18.1 1 12 1" fill="currentColor" fill-rule="evenodd"/>
    </symbol>
    <symbol id="navigation-menu-new-window" viewBox="0 0 24 24">
      <path d="M16.4 0H24v7.6h-2.8V4.8l-7.6 7.6-2.1-2.1 7.6-7.6h-2.8V0ZM0 2.9h11.8v2H2V22h17.1v-9.8h2V24H0z" fill="currentColor"/>
    </symbol>
    <symbol id="navigation-menu-heart" viewBox="0 0 25 22.9">
      <path d="m12.8 2.5-.3.3-.3-.3c-2.7-2.7-7-2.7-9.7 0s-2.7 7 0 9.7l.3.3 9.7 9.7 9.7-9.7.3-.3c2.7-2.7 2.7-7 0-9.7s-7-2.7-9.7 0Z" fill="none" stroke="currentColor" stroke-width="1.5px"/>
    </symbol>
    <symbol id="navigation-menu-cart" viewBox="0 0 24 24">
      <path d="M8.9 13.4 21.5 12V7.3L7 5.8zM2.6 2.6C1.7 2.6 1 1.9 1 1h4.7l.8 3.2L23 5.9V12c0 .8-.6 1.5-1.4 1.6L8.2 15.1l-1 1.7h12.6c.9 0 1.6.7 1.6 1.6H7.3c-1.2 0-2-1.3-1.4-2.3l1.4-2.4L4.5 2.6zm6.3 17.3c-.9 0-1.6.7-1.6 1.6s.7 1.6 1.6 1.6 1.6-.7 1.6-1.6-.7-1.6-1.6-1.6m9.4 0c-.9 0-1.6.7-1.6 1.6s.7 1.6 1.6 1.6 1.6-.7 1.6-1.6-.7-1.6-1.6-1.6" fill="currentColor" fill-rule="evenodd"/>
    </symbol>
    <symbol id="navigation-menu-clear" viewBox="0 0 16 16">
      <path d="m8.6 0 1 .2c3.1.6 5.5 3.1 6.2 6.2v1c.1.4.2.9.1 1.3-.4 6.3-8 9.6-13 5.6C-2.6 9.8.1.6 7.3 0s1.3 0 1.3 0m-1 1.2c-6 .4-8.7 7.9-4.1 11.9 5.1 4.5 12.8-.5 11.1-6.9-.8-3-3.9-5.3-7-5.1Z" fill="currentColor"/>
      <path d="M5.4 4.6 8 7.2l2.6-2.6.8.8L8.8 8l2.6 2.6-.8.8L8 8.8l-2.6 2.6-.8-.8L7.2 8 4.6 5.4z" fill="currentColor"/>
    </symbol>
    <symbol id="navigation-menu-link" viewBox="0 0 16 16">
      <path d="M.8 8c0 2.4 2 4.4 4.4 4.4h2v-.8h-2c-2 0-3.6-1.6-3.6-3.6s1.6-3.6 3.6-3.6h2v-.8h-2C2.8 3.6.8 5.6.8 8M12 7.6H4v.8h8zm-1.2-4c2.4 0 4.4 2 4.4 4.4s-2 4.4-4.4 4.4h-2v-.8h2c2 0 3.6-1.6 3.6-3.6s-1.6-3.6-3.6-3.6h-2v-.8z" fill="currentColor"/>
    </symbol>
    <symbol id="navigation-menu-clock" viewBox="0 0 16 16">
      <path d="M8 0C3.6 0 0 3.6 0 8s3.6 8 8 8 8-3.6 8-8-3.6-8-8-8m0 1.1c3.7 0 6.9 3.1 6.9 6.9s-3.1 6.9-6.9 6.9S1.1 11.7 1.1 8 4.3 1.1 8 1.1m2.4 8.6q.45.45 0 .9t-.9 0L7.6 8.7c-.3-.3-.3-.6-.3-.9V2.9c0-.3.3-.6.6-.6s.6.3.6.6v4.9z" fill="currentColor"/>
    </symbol>
    <symbol id="locate-dealer-icon" viewBox="0 0 24 24">
      <mask id="mask0_62110_835" style="mask-type:alpha" maskUnits="userSpaceOnUse" x="0" y="0" width="24" height="24">
      <rect width="24" height="24" fill="white"/>
      </mask>
      <g mask="url(#mask0_62110_835)">
      <path d="M12 19.35C14.0333 17.4833 15.5417 15.7875 16.525 14.2625C17.5083 12.7375 18 11.3833 18 10.2C18 8.38333 17.4208 6.89583 16.2625 5.7375C15.1042 4.57917 13.6833 4 12 4C10.3167 4 8.89583 4.57917 7.7375 5.7375C6.57917 6.89583 6 8.38333 6 10.2C6 11.3833 6.49167 12.7375 7.475 14.2625C8.45833 15.7875 9.96667 17.4833 12 19.35ZM12 21.325C11.7667 21.325 11.5333 21.2833 11.3 21.2C11.0667 21.1167 10.8583 20.9917 10.675 20.825C9.59167 19.825 8.63333 18.85 7.8 17.9C6.96667 16.95 6.27083 16.0292 5.7125 15.1375C5.15417 14.2458 4.72917 13.3875 4.4375 12.5625C4.14583 11.7375 4 10.95 4 10.2C4 7.7 4.80417 5.70833 6.4125 4.225C8.02083 2.74167 9.88333 2 12 2C14.1167 2 15.9792 2.74167 17.5875 4.225C19.1958 5.70833 20 7.7 20 10.2C20 10.95 19.8542 11.7375 19.5625 12.5625C19.2708 13.3875 18.8458 14.2458 18.2875 15.1375C17.7292 16.0292 17.0333 16.95 16.2 17.9C15.3667 18.85 14.4083 19.825 13.325 20.825C13.1417 20.9917 12.9333 21.1167 12.7 21.2C12.4667 21.2833 12.2333 21.325 12 21.325ZM12 12C12.55 12 13.0208 11.8042 13.4125 11.4125C13.8042 11.0208 14 10.55 14 10C14 9.45 13.8042 8.97917 13.4125 8.5875C13.0208 8.19583 12.55 8 12 8C11.45 8 10.9792 8.19583 10.5875 8.5875C10.1958 8.97917 10 9.45 10 10C10 10.55 10.1958 11.0208 10.5875 11.4125C10.9792 11.8042 11.45 12 12 12Z" fill="currentColor"/>
      </g>
    </symbol>
  </svg>